<?xml version="1.0" encoding="UTF-8"?>
<svg width="73px" height="45px" viewBox="0 0 73 45" version="1.1" xmlns="http://www.w3.org/2000/svg" xmlns:xlink="http://www.w3.org/1999/xlink">
    <!-- Generator: Sketch 53.2 (72643) - https://sketchapp.com -->
    <title>vaki-logo-b&amp;g</title>
    <desc>Created with Sketch.</desc>
    <defs>
        <polygon id="path-1" points="0 0.226390244 27.7086112 0.226390244 27.7086112 26 0 26"></polygon>
        <polygon id="path-3" points="0.144352 0.226390244 7.9296 0.226390244 7.9296 26 0.144352 26"></polygon>
    </defs>
    <g id="Symbols" stroke="none" stroke-width="1" fill="none" fill-rule="evenodd">
        <g id="Nav_Superior_Dark" transform="translate(-128.000000, -10.000000)">
            <g id="vaki-logo-b&amp;g" transform="translate(128.000000, 10.000000)">
                <g id="Group-3" transform="translate(0.000000, 19.000000)">
                    <mask id="mask-2" fill="white">
                        <use xlink:href="#path-1"></use>
                    </mask>
                    <g id="Clip-2"></g>
                    <path d="M12.7566112,26 L-6.29213483e-05,0.226390244 L5.2277573,0.226390244 C7.10501573,0.226390244 7.78173483,1.13543902 8.32348764,2.18273171 L13.8838472,13.4423171 L19.3715326,2.22965854 C20.0825438,1.03682927 20.8687461,0.226390244 22.768027,0.226390244 L27.7086112,0.226390244 L14.9519371,26 L12.7566112,26 Z" id="Fill-1" fill="#FFFFFF" mask="url(#mask-2)"></path>
                </g>
                <g id="Group-6" transform="translate(65.000000, 19.000000)">
                    <mask id="mask-4" fill="white">
                        <use xlink:href="#path-3"></use>
                    </mask>
                    <g id="Clip-5"></g>
                    <path d="M0.144352,26 L0.144352,0.226390244 L4.036832,0.226390244 C6.478112,0.226390244 7.929632,2.01626829 7.929632,4.45043902 L7.929632,26 L0.144352,26 Z" id="Fill-4" fill="#FFFFFF" mask="url(#mask-4)"></path>
                </g>
                <path d="M54.0990415,33.3996429 C52.8543131,31.93875 52.8543131,31.9898571 54.0990415,30.5292857 L64,18.9642857 L56.3086262,18.9642857 C54.1191693,18.9642857 52.1968051,21.4389643 50.0808307,23.9451429 L45.3067093,29.4811071 L45.3067093,3.65946429 C45.3067093,1.58496429 43.7214058,0 41.1936102,0 L37,0 L37,25.7322857 L45.3067093,42.7455 L45.3067093,36.4988571 C45.3067093,35.6798571 46.0332268,35.3352857 46.8974441,36.2818929 L50.0495208,39.9963214 C52.1654952,42.4787143 54.0990415,45 56.3661342,45 L64,45 L54.0990415,33.3996429 Z" id="Fill-7" fill="#FFFFFF"></path>
                <path d="M32.1090321,19 L45,45 L39.717593,45 C37.8203009,45 37.1364746,44.0832862 36.5890321,43.0264744 L30.9699574,31.668307 L25.424956,42.9794553 C24.7058416,44.1827621 23.9120182,45 21.9927902,45 L17,45 L29.8909679,19 L32.1090321,19 Z" id="Fill-9" fill="#8CC640"></path>
            </g>
        </g>
    </g>
</svg>